<?xml version="1.0" encoding="UTF-8" standalone="no"?>
<!-- Created with Inkscape (http://www.inkscape.org/) -->

<svg
   width="34.221684mm"
   height="44.343864mm"
   viewBox="0 0 34.221684 44.343864"
   version="1.1"
   id="svg5"
   xml:space="preserve"
   inkscape:version="1.2 (dc2aeda, 2022-05-15)"
   sodipodi:docname="home-address.svg"
   xmlns:inkscape="http://www.inkscape.org/namespaces/inkscape"
   xmlns:sodipodi="http://sodipodi.sourceforge.net/DTD/sodipodi-0.dtd"
   xmlns="http://www.w3.org/2000/svg"
   xmlns:svg="http://www.w3.org/2000/svg"><sodipodi:namedview
     id="namedview7"
     pagecolor="#ffffff"
     bordercolor="#666666"
     borderopacity="1.0"
     inkscape:showpageshadow="2"
     inkscape:pageopacity="0.0"
     inkscape:pagecheckerboard="0"
     inkscape:deskcolor="#d1d1d1"
     inkscape:document-units="mm"
     showgrid="false"
     showguides="true"
     inkscape:zoom="3.0286753"
     inkscape:cx="43.418322"
     inkscape:cy="147.2591"
     inkscape:window-width="1280"
     inkscape:window-height="430"
     inkscape:window-x="0"
     inkscape:window-y="25"
     inkscape:window-maximized="0"
     inkscape:current-layer="layer1"><sodipodi:guide
       position="17.1111,41.313042"
       orientation="-1,0"
       id="guide1982"
       inkscape:locked="false"
       inkscape:label=""
       inkscape:color="rgb(0,134,229)" /><sodipodi:guide
       position="58.1496,11.726962"
       orientation="1,0"
       id="guide4199"
       inkscape:locked="false" /><sodipodi:guide
       position="65.41322,23.263302"
       orientation="0,-1"
       id="guide4201"
       inkscape:locked="false" /></sodipodi:namedview><defs
     id="defs2" /><g
     inkscape:label="Шар 1"
     inkscape:groupmode="layer"
     id="layer1"
     transform="translate(-53.368319,-115.43275)"><path
       id="path4203"
       style="fill:#ffffff;stroke:#000000;stroke-width:0.264583px;stroke-linecap:butt;stroke-linejoin:miter;stroke-opacity:1"
       d="m 70.478902,115.56504 c -8.00535,6e-5 -16.085687,9.0301 -16.978292,16.98553 -1.184723,10.55896 11.318709,17.98523 16.978292,26.97768 5.659585,-8.99245 18.16355,-16.41863 16.978809,-26.97768 -0.892624,-7.95555 -8.973337,-16.98559 -16.978809,-16.98553 z m 5.17e-4,2.89853 12.075749,10.0428 h -2.835486 v 16.59743 h -3.562057 v -9.65935 h -4.585766 v 9.65935 h -10.33322 v -16.59743 h -2.835486 l 3.917591,-3.25768 v -5.15835 h 4.241085 v 1.63091 z m 0,4.32945 c -1.173117,-9e-5 -2.124218,0.95078 -2.124418,2.1239 -8.7e-5,1.17332 0.951098,2.12451 2.124418,2.12442 1.17332,9e-5 2.124505,-0.9511 2.124418,-2.12442 -2e-4,-1.17312 -0.951301,-2.12399 -2.124418,-2.1239 z m -6.139677,8.88008 v 6.78873 h 4.241602 v -6.78873 z"
       sodipodi:nodetypes="aacaacccccccccccccccccccccccccc" /></g></svg>
